<?xml version="1.0" encoding="utf-8"?>
<!-- Generator: Adobe Illustrator 22.1.0, SVG Export Plug-In . SVG Version: 6.00 Build 0)  -->
<svg version="1.1" id="Layer_1" xmlns="http://www.w3.org/2000/svg" xmlns:xlink="http://www.w3.org/1999/xlink" x="0px" y="0px"
	 width="398.8px" height="366.8px" viewBox="0 0 398.8 366.8" style="enable-background:new 0 0 398.8 366.8;" xml:space="preserve"
	>
<style type="text/css">
	.st0{fill:#D1D0CF;}
	.st1{fill:#8C8D8D;}
	.st2{fill-rule:evenodd;clip-rule:evenodd;}
	.st3{fill-rule:evenodd;clip-rule:evenodd;fill:#FFFFFF;}
	.st4{fill-rule:evenodd;clip-rule:evenodd;fill:#9E2432;}
	.st5{fill:#FFFFFF;}
</style>
<rect class="st0" width="398.8" height="366.8"/>
<g>
	<g>
		<polygon class="st1" points="58.6,52.3 58.6,228.7 197.8,313.7 199,314.5 339.6,229 340.2,228.7 340.2,52.3 		"/>
		<polygon class="st2" points="335.6,56.9 335.6,226.1 199,309.2 63.1,226.1 63.1,56.9 		"/>
		<polygon class="st3" points="318.6,183.6 168.3,183.6 168.3,268 200.2,286.7 200.2,215.5 318.6,215.5 		"/>
		<polygon class="st4" points="318.6,124.7 81.7,124.8 81.7,216.2 160.9,263.4 160.9,169.4 318.6,169.4 		"/>
		<path class="st5" d="M81.7,111.6V67.3h34.4v10.3H96.2v8.1H112V96H96.2v15.6H81.7z"/>
		<path class="st5" d="M121.9,111.6V67.3H158v10.3h-21.6V84h18.3v10.3h-18.3v6.9h22.4v10.3H121.9z"/>
		<path class="st5" d="M179.1,77.6h6.8c3.4,0,5.8,1.5,5.8,4.6c0,3.1-2.4,4.2-6.9,4.2h-5.7V77.6z M183.5,96.2c6.8,0,7.7,1.9,7.7,7.7
			c0,3.9,0.4,6.8,0.7,7.7h14.7v-1.4c-1.7,0-1.5-2-1.5-7.7c0-8.9-2.8-10-7.5-11.7c5.2-1.4,7.4-5.7,7.4-10.8c0-8.6-4.9-12.6-19.6-12.6
			h-20.9v44.3h14.5V96.2H183.5z"/>
		<path class="st5" d="M226.1,77.6h6.8c3.4,0,5.8,1.5,5.8,4.6c0,3.1-2.4,4.2-6.9,4.2h-5.7V77.6z M230.5,96.2c6.8,0,7.7,1.9,7.7,7.7
			c0,3.9,0.4,6.8,0.7,7.7h14.7v-1.4c-1.7,0-1.5-2-1.5-7.7c0-8.9-2.8-10-7.5-11.7c5.2-1.4,7.4-5.7,7.4-10.8c0-8.6-4.9-12.6-19.6-12.6
			h-20.9v44.3h14.5V96.2H230.5z"/>
		<path class="st5" d="M259.4,111.6V67.3H274v44.3H259.4z"/>
		<path class="st5" d="M305.2,80.2c-0.2-1.5-1-2.5-2.1-3c-1-0.6-2.3-0.8-3.8-0.8c-3.2,0-4.6,0.9-4.6,2.5c0,6.6,25.5,2.5,25.5,18.6
			c0,10.3-8.5,15.3-20.7,15.3c-11.7,0-19.3-6.8-19.6-14.8h13.9c0.3,1.6,1.2,2.8,2.4,3.5c1.2,0.7,2.7,1.1,4.1,1.1c3.6,0,6-1.2,6-3.3
			c0-6.7-25.5-2.1-25.5-19c0-9.4,8.1-14.1,19.2-14.1c12.3,0,17.9,6.3,18.9,14H305.2z"/>
		<g>
			<path class="st5" d="M319.8,70.9c0-2.7,2.2-4.6,4.7-4.6c2.5,0,4.7,2,4.7,4.6c0,2.7-2.2,4.7-4.7,4.7
				C322,75.5,319.8,73.6,319.8,70.9z M324.5,74.7c2.1,0,3.8-1.7,3.8-3.9c0-2.2-1.7-3.9-3.8-3.9c-2.1,0-3.8,1.7-3.8,3.9
				C320.7,73.1,322.4,74.7,324.5,74.7z M323.5,73.6h-0.8v-5.4h2c1.3,0,1.9,0.5,1.9,1.5c0,1-0.6,1.4-1.4,1.5l1.5,2.4h-0.9l-1.4-2.3
				h-0.9V73.6z M324.5,70.5c0.7,0,1.3,0,1.3-0.9c0-0.7-0.6-0.8-1.2-0.8h-1.1v1.7H324.5z"/>
		</g>
	</g>
</g>
</svg>
