<?xml version="1.0" encoding="utf-8"?>
<!-- Generator: Adobe Illustrator 22.1.0, SVG Export Plug-In . SVG Version: 6.00 Build 0)  -->
<svg version="1.1"
	 id="svg2" inkscape:output_extension="org.inkscape.output.svg.inkscape" inkscape:version="0.46" sodipodi:docname="checkmarks_ocal081028_f1.svg" sodipodi:version="0.32" xmlns:cc="http://creativecommons.org/ns#" xmlns:dc="http://purl.org/dc/elements/1.1/" xmlns:inkscape="http://www.inkscape.org/namespaces/inkscape" xmlns:rdf="http://www.w3.org/1999/02/22-rdf-syntax-ns#" xmlns:sodipodi="http://sodipodi.sourceforge.net/DTD/sodipodi-0.dtd" xmlns:svg="http://www.w3.org/2000/svg"
	 xmlns="http://www.w3.org/2000/svg" xmlns:xlink="http://www.w3.org/1999/xlink" x="0px" y="0px" width="190px" height="190px"
	 viewBox="0 0 190 190" style="enable-background:new 0 0 190 190;" xml:space="preserve">
<style type="text/css">
	.st0{fill:#F15A29;}
</style>
<defs>
	
	
		<inkscape:perspective  id="perspective10" inkscape:persp3d-origin="372.04724 : 350.78739 : 1" inkscape:vp_x="0 : 526.18109 : 1" inkscape:vp_y="0 : 1000 : 0" inkscape:vp_z="744.09448 : 526.18109 : 1" sodipodi:type="inkscape:persp3d">
		</inkscape:perspective>
	
		<inkscape:perspective  id="perspective3331" inkscape:persp3d-origin="372.04724 : 350.78739 : 1" inkscape:vp_x="0 : 526.18109 : 1" inkscape:vp_y="0 : 1000 : 0" inkscape:vp_z="744.09448 : 526.18109 : 1" sodipodi:type="inkscape:persp3d">
		</inkscape:perspective>
	
		<inkscape:perspective  id="perspective2502" inkscape:persp3d-origin="372.04724 : 350.78739 : 1" inkscape:vp_x="0 : 526.18109 : 1" inkscape:vp_y="0 : 1000 : 0" inkscape:vp_z="744.09448 : 526.18109 : 1" sodipodi:type="inkscape:persp3d">
		</inkscape:perspective>
	
		<inkscape:perspective  id="perspective2504" inkscape:persp3d-origin="372.04724 : 350.78739 : 1" inkscape:vp_x="0 : 526.18109 : 1" inkscape:vp_y="0 : 1000 : 0" inkscape:vp_z="744.09448 : 526.18109 : 1" sodipodi:type="inkscape:persp3d">
		</inkscape:perspective>
	
		<inkscape:perspective  id="perspective2448" inkscape:persp3d-origin="372.04724 : 350.78739 : 1" inkscape:vp_x="0 : 526.18109 : 1" inkscape:vp_y="0 : 1000 : 0" inkscape:vp_z="744.09448 : 526.18109 : 1" sodipodi:type="inkscape:persp3d">
		</inkscape:perspective>
	
		<inkscape:perspective  id="perspective2409" inkscape:persp3d-origin="372.04724 : 350.78739 : 1" inkscape:vp_x="0 : 526.18109 : 1" inkscape:vp_y="0 : 1000 : 0" inkscape:vp_z="744.09448 : 526.18109 : 1" sodipodi:type="inkscape:persp3d">
		</inkscape:perspective>
	
		<inkscape:perspective  id="perspective2407" inkscape:persp3d-origin="372.04724 : 350.78739 : 1" inkscape:vp_x="0 : 526.18109 : 1" inkscape:vp_y="0 : 1000 : 0" inkscape:vp_z="744.09448 : 526.18109 : 1" sodipodi:type="inkscape:persp3d">
		</inkscape:perspective>
</defs>
<sodipodi:namedview  bordercolor="#666666" borderopacity="1.0" gridtolerance="10000" guidetolerance="10" id="base" inkscape:current-layer="layer1" inkscape:cx="95" inkscape:cy="95" inkscape:document-units="px" inkscape:pageopacity="0.0" inkscape:pageshadow="2" inkscape:window-height="963" inkscape:window-width="1170" inkscape:window-x="158" inkscape:window-y="48" inkscape:zoom="3.9" objecttolerance="10" pagecolor="#ffffff" showgrid="false">
	</sodipodi:namedview>
<g id="layer1" transform="translate(-73.24779,-53.178333)" inkscape:groupmode="layer" inkscape:label="Layer 1">
	<g id="g2414" transform="translate(-123.39162,12.727619)" inkscape:label="Layer 1">
		<path id="path2418" sodipodi:nodetypes="csssccssssccc" class="st0" d="M289.7,57.9c-45.8,0-83,37.3-83,83c0,45.8,37.3,83,83,83
			c45.8,0,83-37.3,83-83c0-19.8-6.7-37.5-18.1-52l-7.8,9.3c9.9,12.2,13.8,25.8,13.8,42.7c0,39.2-31.7,70.9-70.9,70.9
			c-39.2,0-70.9-31.7-70.9-70.9S250.4,70,289.7,70c12.4,0,21.7,1.8,31.9,7.4l7.4-9.8C317.1,61.1,304.2,57.9,289.7,57.9z"/>
		<path id="path2510" class="st0" d="M258.9,130c3.3,0,5.9,2.7,7.6,8.2c3.4,10.3,5.9,15.5,7.3,15.5c1.1,0,2.3-0.9,3.5-2.6
			c24.1-38.6,46.4-69.9,67-93.7c5.3-6.2,13.8-9.3,25.4-9.3c2.7,0,4.6,0.3,5.5,0.8c0.9,0.5,1.4,1.2,1.4,1.9c0,1.2-1.4,3.6-4.2,7.1
			c-33.1,39.8-63.9,81.9-92.2,126.2c-2,3.1-6,4.6-12.1,4.6c-6.2,0-9.8-0.3-10.9-0.8c-2.9-1.3-6.4-7.9-10.3-19.7
			c-4.5-13.1-6.7-21.4-6.7-24.7c0-3.6,3-7.1,9-10.4C252.8,131.1,256.1,130,258.9,130"/>
	</g>
</g>
</svg>
