<?xml version="1.0" encoding="utf-8"?>
<!-- Generator: Adobe Illustrator 22.1.0, SVG Export Plug-In . SVG Version: 6.00 Build 0)  -->
<svg version="1.1" id="Layer_1" xmlns="http://www.w3.org/2000/svg" xmlns:xlink="http://www.w3.org/1999/xlink" x="0px" y="0px"
	 width="276.9px" height="50.8px" viewBox="0 0 276.9 50.8" style="enable-background:new 0 0 276.9 50.8;" xml:space="preserve">
<style type="text/css">
	.st0{fill:#808080;}
	.st1{fill:#F15A29;}
</style>
<g>
	<path class="st0" d="M48.8,42.2l16.3-26.8H50.8v-8h28v0.8L61.9,34.9h16.3V43H48.8V42.2z"/>
	<path class="st0" d="M84.2,7.3h23.6V15H92.9v6.4h13.8v7.6H92.9v6.4h15.5V43H84.2V7.3z"/>
	<path class="st0" d="M119,15h-8V7.3h24.9V15h-8.1v28H119V15z"/>
	<path class="st0" d="M150.1,6.1h1.5L169.1,43h-9.4l-1.8-3.7h-14.1l-1.7,3.7h-9.4L150.1,6.1z M154.9,33.1l-4.1-9h-0.1l-4.2,9H154.9z
		"/>
	<path class="st0" d="M171.3,42.2l16.3-26.8h-14.3v-8h28v0.8l-16.9,26.8h16.3V43h-29.5V42.2z"/>
	<path class="st0" d="M224.5,6.1c11.2,0,19.2,8.4,19.2,19c0,10.7-8,19-19.2,19c-11.3,0-19.2-8.4-19.2-19
		C205.3,14.5,213.2,6.1,224.5,6.1z M224.5,35.9c6.3,0,10.4-4.8,10.4-10.8s-4-10.8-10.4-10.8c-6.4,0-10.4,4.8-10.4,10.8
		S218.1,35.9,224.5,35.9z"/>
	<path class="st0" d="M253.7,15h-8V7.3h24.9V15h-8.1v28h-8.8V15z"/>
</g>
<path class="st1" d="M11.6,8.8C15,6.2,18.7,4.3,23,3.9c6.3-0.6,11.9,1,16.8,5.2c4,3.4,6.4,7.7,7.3,12.8c1,5,0.2,9.8-2.3,14.3
	c-3.2,5.7-8,9.6-14.4,11c-7.3,1.6-13.9,0-19.6-5c-4.2-3.7-6.5-8.3-7.2-13.8C3.6,28.1,2.1,15.9,11.6,8.8z M9.2,13.9
	c10.9,0,21.6,0,32.3,0c-2.1-3.7-8.1-7.7-14.1-8.1C20,5.2,14,7.9,9.2,13.9z M22.2,15.9c1.3,0.5,2.6,1.2,3.7,2.1
	c0.4,0.4,0.8,0.4,1.3,0.4c5.3,0,10.5,0,15.8,0c0.2,0,0.5,0,0.7,0c0.2,0,0.3-0.1,0.3-0.3c0.1-0.6-1-2.2-1.6-2.2
	C35.6,15.9,28.9,15.9,22.2,15.9z M13,31.9c3.2,3.9,10.2,3.7,12.9,0C21.6,31.9,17.4,31.9,13,31.9z M19.5,28.4c-2.6,0-5.1,0-7.7,0
	c-0.3,0-0.8-0.2-0.9,0.2c-0.1,0.4,0.1,0.9,0.4,1.2c0.2,0.3,0.6,0.2,0.9,0.2c4.8,0,9.5,0,14.3,0c0.2,0,0.4,0,0.6,0
	c0.7-0.1,0.7-0.7,0.8-1.2c0-0.6-0.5-0.3-0.8-0.3C24.7,28.4,22.1,28.4,19.5,28.4z M28.1,20.4c0.3,1.2,0.9,1.6,2.1,1.6
	c4.7-0.1,9.3,0,14,0c0.3,0,1,0.3,0.9-0.5C45,21,45,20.4,44.2,20.4C38.8,20.4,33.5,20.4,28.1,20.4z M17.1,16c-0.3,0-0.3-0.1-0.3-0.1
	c-2.5,0-4.9,0-7.4,0c-1.3,0-2.1,0.7-2.4,2c-0.1,0.3,0,0.5,0.4,0.5c1.7,0,3.4,0,5.2,0c0.1,0,0.3-0.1,0.3-0.1
	C14,17.2,15.4,16.6,17.1,16z M19.6,25.7c-2.8,0-5.5,0-8.3,0c-0.3,0-0.9-0.2-0.9,0.5c0,0.6,0.5,0.5,0.9,0.5c5.5,0,10.9,0,16.4,0
	c0.3,0,0.9,0.2,0.9-0.5c0-0.6-0.5-0.5-0.9-0.5C25,25.7,22.3,25.7,19.6,25.7z M37.5,24.9c2.5,0,4.9,0,7.4,0c0.3,0,0.7,0,0.7-0.5
	c0-0.5-0.3-0.5-0.7-0.5c-0.2,0-0.4,0-0.6,0c-4.1,0-8.2,0-12.4,0c-0.7,0-1.4,0-2,0c-0.2,0-0.5,0-0.5,0.3c0,0.3,0.1,0.5,0.4,0.6
	c0.3,0,0.5,0,0.8,0C32.9,24.9,35.2,24.9,37.5,24.9z M8.5,20.4C8.5,20.4,8.5,20.4,8.5,20.4c-0.6,0-1.3,0-1.9,0
	c-0.7,0-0.5,0.7-0.7,1.1c-0.1,0.3,0,0.4,0.3,0.4c1.3,0,2.5,0.1,3.8,0c0.6-0.1,0.8-0.8,0.8-1.3c0-0.4-0.6-0.2-0.9-0.2
	C9.4,20.4,8.9,20.4,8.5,20.4z M7.5,23.9C7.5,23.9,7.5,23.9,7.5,23.9c-0.6,0-1.1,0-1.7,0c-0.3,0-0.5,0.1-0.5,0.5
	c0,0.3,0.1,0.5,0.4,0.5c1.1,0,2.3,0,3.4,0c0.4,0,0.5-0.4,0.5-0.6c0-0.3-0.3-0.3-0.5-0.3C8.6,23.9,8,23.9,7.5,23.9z"/>
</svg>
